<?xml version="1.0" standalone="no"?>
<!DOCTYPE svg PUBLIC "-//W3C//DTD SVG 20010904//EN"
 "http://www.w3.org/TR/2001/REC-SVG-20010904/DTD/svg10.dtd">
<svg version="1.0" xmlns="http://www.w3.org/2000/svg"
 width="260.000000pt" height="260.000000pt" viewBox="0 0 260.000000 260.000000"
 preserveAspectRatio="xMidYMid meet">
<metadata>
Created by potrace 1.11, written by Peter Selinger 2001-2013
</metadata>
<g transform="translate(0.000000,260.000000) scale(0.100000,-0.100000)"
fill="#000000" stroke="none">
<path d="M0 1300 l0 -1300 1300 0 1300 0 0 1300 0 1300 -1300 0 -1300 0 0
-1300z m1448 734 c147 -30 274 -99 381 -205 335 -335 281 -884 -114 -1152
-245 -167 -585 -167 -830 0 -450 306 -444 954 11 1253 161 105 361 143 552
104z"/>
<path d="M1155 1974 c-38 -8 -112 -36 -164 -61 -78 -37 -109 -59 -177 -127
-68 -68 -90 -99 -127 -177 -102 -210 -102 -411 0 -619 38 -78 61 -109 128
-176 67 -68 98 -90 176 -127 210 -102 408 -102 618 0 78 37 109 59 176 127
214 214 263 516 128 795 -37 78 -59 109 -127 177 -68 68 -99 90 -177 127 -152
74 -299 93 -454 61z"/>
</g>
</svg>
